<?xml version="1.0" encoding="utf-8"?>
<!-- Generator: Adobe Illustrator 17.0.0, SVG Export Plug-In . SVG Version: 6.00 Build 0)  -->
<!DOCTYPE svg PUBLIC "-//W3C//DTD SVG 1.1//EN" "http://www.w3.org/Graphics/SVG/1.1/DTD/svg11.dtd">
<svg version="1.1" id="Layer_1" xmlns="http://www.w3.org/2000/svg" xmlns:xlink="http://www.w3.org/1999/xlink" x="0px" y="0px"
	 width="567.743px" height="46.679px" viewBox="0 0 567.743 46.679" enable-background="new 0 0 567.743 46.679"
	 xml:space="preserve">
<path fill="#512F2E" d="M436.757,5.932c-1.688,1.215-3.328,1.654-4.98,1.91c-2.154,0.335-4.334,0.542-6.511,0.664
	c-2.666,0.149-4.958,1.289-7.316,2.598c1.288,0.49,2.583,0.965,3.864,1.474c2.962,1.177,5.917,2.37,8.873,3.56
	c0.211,0.085,0.449,0.159,0.607,0.309c1.316,1.251,2.996,1.181,4.61,1.229c2.871,0.086,5.745,0.066,8.617,0.119
	c1.457,0.027,2.913,0.113,4.369,0.179c0.18,0.008,0.377,0.02,0.534,0.096c1.424,0.694,2.84,1.402,4.235,2.339
	c-0.478,0.103-0.956,0.206-1.738,0.374c0.457,0.205,0.634,0.283,0.811,0.363c3.482,1.581,6.963,3.164,10.447,4.742
	c0.704,0.319,1.392,0.735,2.133,0.893c0.921,0.197,1.694,0.452,2.316,1.242c0.297,0.377,0.925,0.598,1.437,0.683
	c1.342,0.221,2.7,0.423,4.057,0.461c2.507,0.071,5.019,0.066,7.527,0.004c1.633-0.04,3.261-0.281,4.895-0.35
	c2.322-0.097,4.648-0.189,6.969-0.132c0.777,0.019,1.533,0.535,2.318,0.758c1.263,0.36,2.56,0.973,3.809,0.9
	c1.042-0.061,1.937,0.171,2.887,0.357c0.161,0.032,0.3,0.176,0.462,0.276c-0.824,0.785-1.863,0.834-2.835,0.962
	c-5.049,0.668-10.103,1.303-15.159,1.91c-1.218,0.146-2.462,0.079-3.68,0.226c-1.752,0.212-3.488,0.562-5.239,0.791
	c-1.351,0.176-2.718,0.227-4.072,0.386c-2.34,0.276-4.675,0.592-7.018,1.157c0.519,0.055,1.038,0.158,1.557,0.159
	c6.524,0.011,13.048,0.031,19.572-0.017c1.053-0.008,1.625,0.265,2.078,1.269c0.933,2.065,2.041,4.052,3.14,6.193
	c-0.421,0.072-0.714,0.161-1.008,0.166c-2.599,0.044-5.197,0.1-7.796,0.103c-43.385,0.038-86.771,0.071-130.156,0.091
	c-0.984,0-1.866,0.145-2.721,0.678c-0.689,0.43-1.456,0.774-2.232,1.018c-1.412,0.443-2.751,0.698-4.354,0.331
	c-4.337-0.992-8.693-1.992-13.185-2.133c-3.41-0.107-6.815-0.419-10.225-0.501c-2.134-0.051-4.274,0.157-6.411,0.246
	c-0.641,0.027-1.247-0.008-1.818-0.415c-0.313-0.223-0.764-0.297-1.163-0.343c-0.808-0.092-1.548-0.248-2.324-0.6
	c-0.643-0.291-1.606-0.078-2.365,0.136c-1.133,0.32-2.215,0.827-3.312,1.271c-0.943,0.382-1.91,0.511-2.93,0.51
	c-16.151-0.016-32.301-0.03-48.452,0.005c-3.002,0.007-6.003,0.24-9.005,0.35c-0.75,0.027-1.509,0.155-2.058-0.673
	c-0.201-0.303-0.806-0.406-1.246-0.472c-2.067-0.312-4.134-0.646-6.214-0.846c-2.895-0.278-5.8-0.445-8.701-0.655
	c-0.22-0.016-0.455-0.03-0.663,0.027c-1.796,0.489-3.628,0.84-5.283,1.791c-0.688,0.395-1.534,0.655-2.326,0.704
	c-3.089,0.193-6.185,0.272-9.278,0.404c-3.518,0.15-6.998-0.356-10.496-0.573c-2.864-0.178-5.734-0.279-8.603-0.336
	c-2.915-0.058-5.831-0.03-8.747-0.012c-0.511,0.003-0.895-0.146-1.165-0.557c-0.443-0.672-1.073-0.684-1.681-0.384
	c-2.35,1.16-4.832,1.18-7.354,0.952c-0.181-0.016-0.365-0.009-0.547-0.01c-7.161-0.059-14.321-0.109-21.482-0.185
	c-1.137-0.012-2.214,0.036-3.315,0.473c-3.305,1.311-6.768,1.176-10.244,0.994c-1.671-0.087-3.359,0.103-5.038,0.197
	c-2.315,0.131-4.632,0.44-6.941,0.39c-1.879-0.041-3.837-0.031-5.579-1.013c-0.147-0.083-0.348-0.123-0.517-0.106
	c-2.121,0.205-4.267,0.024-6.374,0.563c-0.848,0.217-1.803,0.023-2.709-0.002c-1.315-0.037-2.63-0.118-3.945-0.13
	c-2.964-0.029-5.929-0.026-8.894-0.039c-0.228-0.001-0.455-0.037-0.683-0.041c-4.056-0.062-8.113-0.089-12.167-0.192
	c-3.246-0.083-6.453,0.236-9.644,0.768c-0.8,0.133-1.57,0.442-2.366,0.612c-1.823,0.389-3.363-0.407-4.892-1.227
	c-0.344-0.184-0.694-0.465-1.056-0.491c-1.906-0.136-3.816-0.232-5.726-0.29c-3.689-0.112-7.379-0.181-11.068-0.289
	c-0.725-0.021-1.453-0.105-2.17-0.223c-0.979-0.162-1.704,0.266-2.525,0.741c-1.201,0.695-2.516,1.274-3.855,1.609
	c-0.633,0.159-1.44,0.086-2.166,0.044c-2.906-0.166-5.811-0.353-8.717-0.518c-3.815-0.216-7.633-0.397-11.446-0.651
	c-0.558-0.037-0.943,0.135-1.394,0.367c-0.507,0.261-1.063,0.49-1.622,0.575c-0.698,0.106-1.24-0.172-1.736-0.786
	c-1.6-1.984-3.305-3.883-4.944-5.836c-0.25-0.297-0.461-0.692-0.524-1.069c-0.247-1.48-0.417-2.973-0.639-4.457
	c-0.08-0.536,0.064-0.939,0.415-1.364c0.659-0.798,1.392-1.584,1.386-2.732c-0.002-0.305,0.07-0.617,0.024-0.913
	c-0.574-3.685-1.162-7.368-1.75-11.05c-0.086-0.539-0.172-1.08-0.29-1.613c-0.126-0.572-0.362-1.052-0.758-1.544
	c-1.107-1.377-1.793-2.57-0.318-4.394c1.314-1.625,2.613-3.264,3.987-4.837c0.872-0.998,1.726-1.957,2.165-3.26
	c0.544-1.617,1.744-2.361,3.477-2.206c1.223,0.11,2.449,0.263,3.673,0.257c1.176-0.007,2.364-0.124,3.525-0.32
	c1.598-0.27,3.073,0.024,4.498,0.712c1.517,0.733,2.991,1.57,4.552,2.191c0.899,0.358,1.934,0.529,2.906,0.522
	c4.101-0.03,8.201-0.162,12.301-0.246c0.736-0.015,1.288-0.195,1.614-0.966c0.503-1.19,1.548-1.622,2.766-1.587
	c2.412,0.068,4.823,0.166,7.232,0.295c2.544,0.136,5.086,0.324,7.629,0.487c0.136,0.009,0.283,0.029,0.408-0.01
	c1.656-0.509,3.158-0.035,4.54,0.818c2.589,1.597,5.383,1.99,8.368,1.809c2.685-0.162,5.333,0.192,8,0.682
	c2.037,0.375,4.246,0.498,6.254-0.603c1.172-0.643,2.465-0.856,3.806-0.951c1.493-0.106,2.973-0.399,4.459-0.601
	c1.215-0.165,2.43-0.351,3.65-0.46c1.057-0.094,2.038-0.348,2.996-0.824c0.452-0.224,1.055-0.302,1.558-0.228
	c0.772,0.114,1.49,0.159,2.278,0.004c0.688-0.135,1.441,0.071,2.166,0.116c2.226,0.138,4.451,0.361,6.679,0.388
	c4.356,0.054,8.677,0.897,13.049,0.539c1.405-0.115,2.815-0.28,4.22-0.261c5.51,0.075,11.014,0.253,16.408,1.581
	c2.063,0.508,4.171,0.333,6.265,0.271c3.095-0.093,6.189-0.244,9.285-0.315c2.608-0.06,5.173,0.174,7.643,1.165
	c0.819,0.329,1.769,0.379,2.667,0.456c1.585,0.136,3.176,0.221,4.767,0.281c3.875,0.148,7.718-0.263,11.564-0.672
	c2.894-0.308,5.815-0.374,8.704-0.714c3.527-0.416,7.051-0.172,10.458,0.501c2.635,0.52,5.119-0.222,7.668-0.022
	c0.403,0.032,0.815-0.064,1.224-0.083c4.228-0.199,8.456-0.396,12.684-0.591c2.455-0.113,4.913-0.195,7.366-0.341
	c1.633-0.097,3.27-0.214,4.888-0.444c3.528-0.503,7.055-0.745,10.614-0.389c0.659,0.066,1.348-0.031,2.007-0.147
	c0.83-0.146,1.621,0.058,2.183,0.547c1.16,1.01,2.555,1.164,3.935,1.237c2.458,0.129,4.924,0.08,7.386,0.132
	c1.091,0.023,2.181,0.177,3.27,0.156c2.548-0.05,5.096-0.146,7.642-0.273c1.122-0.056,1.897-0.79,2.583-1.598
	c0.35-0.412,0.656-0.861,1.088-1.434c5.13,0.555,10.277,1.133,15.43,1.641c0.632,0.062,1.419-0.078,1.925-0.428
	c0.847-0.585,1.695-0.594,2.605-0.468c0.72,0.101,1.432,0.264,2.148,0.394c1.757,0.32,3.499,0.332,5.29,0.133
	c4.092-0.455,8.186-0.361,12.219,0.591c0.795,0.188,1.501,0.091,2.267-0.128c2.402-0.687,4.773-1.722,7.299-1.624
	c2.718,0.105,5.436,0.479,8.129,0.894c2.247,0.347,4.459,0.918,6.684,1.402c0.397,0.086,0.883,0.12,1.156,0.368
	c1.321,1.203,2.91,0.839,4.41,0.781c2.499-0.096,4.993-0.33,7.488-0.51c2.107-0.152,4.13-0.555,6.01-1.616
	c2.653-1.498,5.583-1.556,8.512-1.344c2.767,0.2,5.522,0.561,8.288,0.772c0.89,0.068,1.798-0.157,2.698-0.173
	c3.101-0.054,6.204-0.019,9.302-0.129c1.722-0.061,3.458-0.228,5.15-0.547c2.927-0.552,5.815-0.29,8.682,0.241
	c5.82,1.077,11.665,1.928,17.571,2.343C431.741,4.006,434.023,5.18,436.757,5.932z"/>
<path fill="#512F2E" d="M567.743,42.073c-1.033,0.996-2.018,1.592-3.229,1.655c-2.546,0.132-5.095,0.265-7.643,0.276
	c-12.956,0.058-25.913,0.077-38.869,0.109c-0.545,0.001-1.09,0-1.745,0c-1.293-2.396-2.581-4.782-3.95-7.318
	c0.357-0.055,0.556-0.114,0.754-0.113c10.538,0.021,21.076,0.041,31.614,0.075c2.873,0.009,5.746,0.046,8.618,0.109
	c0.623,0.014,1.278,0.099,1.857,0.316c3.84,1.432,7.664,2.908,11.491,4.375C566.935,41.668,567.211,41.822,567.743,42.073z"/>
<path fill="#512F2E" d="M508.412,44.024c-0.482,0.034-0.872,0.085-1.261,0.086c-2.825,0.007-5.65-0.025-8.474,0.022
	c-0.824,0.014-1.331-0.217-1.738-0.963c-1.003-1.836-2.095-3.624-3.144-5.436c-0.174-0.3-0.31-0.623-0.521-1.05
	c0.435-0.043,0.735-0.101,1.034-0.099c3.234,0.018,6.468,0.065,9.702,0.056c0.703-0.002,1.063,0.28,1.346,0.883
	c0.931,1.976,1.904,3.932,2.855,5.898C508.286,43.574,508.321,43.746,508.412,44.024z"/>
</svg>
