<?xml version="1.0" encoding="utf-8"?>
<!-- Generator: Adobe Illustrator 17.0.0, SVG Export Plug-In . SVG Version: 6.00 Build 0)  -->
<!DOCTYPE svg PUBLIC "-//W3C//DTD SVG 1.1//EN" "http://www.w3.org/Graphics/SVG/1.1/DTD/svg11.dtd">
<svg version="1.1" id="Layer_1" xmlns="http://www.w3.org/2000/svg" xmlns:xlink="http://www.w3.org/1999/xlink" x="0px" y="0px"
	 width="570.865px" height="45.67px" viewBox="0 0 570.865 45.67" enable-background="new 0 0 570.865 45.67" xml:space="preserve">
<path fill="#512F2E" d="M3,34.663c1.136-1.416,2.155-2.696,3.187-3.967c0.68-0.838,0.975-1.61,0.296-2.69
	c-0.435-0.692-0.452-1.651-0.641-2.493c-0.12-0.533-0.235-1.068-0.311-1.608c-0.078-0.555-0.341-0.834-0.894-1.047
	c-1.512-0.582-2.563-1.558-2.788-3.32C1.274,15.031,0.615,10.535,0,6.106C1.383,5.069,2.776,4.654,4.323,4.62
	c2.699-0.059,5.302-0.786,7.946-1.228c2.467-0.412,4.929-0.884,7.41-1.179c1.573-0.187,3.18-0.085,4.77-0.14
	c0.771-0.027,1.543-0.089,2.308-0.189c0.3-0.039,0.617-0.174,0.864-0.352c1.999-1.432,4.156-1.79,6.589-1.363
	c2.186,0.384,4.43,0.432,6.647,0.637c3.214,0.298,6.428,0.604,9.642,0.906c0.316,0.03,0.654,0.14,0.945,0.068
	c2.127-0.525,4.272-0.147,6.405-0.134c2.084,0.013,4.172,0.108,6.251,0.267c2.584,0.197,5.162,0.477,7.736,0.775
	c0.404,0.047,0.83,0.313,1.15,0.588c1.161,1,2.408,1.477,3.998,1.278c3.292-0.413,6.604-0.671,9.904-1.018
	c3.075-0.323,6.145-0.704,9.221-1.011c1.945-0.194,3.9-0.293,5.85-0.446c6.09-0.481,12.19-0.63,18.296-0.548
	c1.879-0.532,3.52,0.645,5.322,0.747c1.857,0.105,3.704,0.57,5.555,0.57c1.897,0,3.792-0.384,5.69-0.578
	c0.632-0.065,1.288-0.162,1.902-0.061c0.605,0.1,1.272,0.31,1.738,0.687c1.525,1.236,3.15,1.872,5.153,1.524
	c1.248-0.217,2.538-0.188,3.801-0.337c0.521-0.061,1.086-0.196,1.518-0.473c1.758-1.124,3.651-1.553,5.724-1.447
	c2.274,0.116,4.553,0.136,6.83,0.183c0.407,0.008,0.884,0.074,1.211-0.104c1.931-1.051,4.009-0.623,6.038-0.681
	c0.226-0.006,0.454,0.054,0.681,0.058c4.647,0.097,9.295,0.318,13.939,0.243c3.814-0.061,7.621-0.519,11.435-0.717
	c2.09-0.108,4.189-0.078,6.282-0.03c0.517,0.012,1.046,0.294,1.536,0.525c1.331,0.627,2.677,1.007,4.192,1.025
	c1.902,0.023,3.865,0.098,5.683,0.59c1.613,0.437,3.087,0.16,4.636,0.048c1.499-0.109,3.008-0.059,4.51-0.136
	c4.225-0.218,8.448-0.482,12.673-0.697c3.093-0.157,6.188-0.248,9.281-0.4c0.952-0.047,1.907-0.144,2.846-0.305
	c8.793-1.508,14.421,2.392,22.643,3.024c6.002,0.461,13.168-0.585,18.857-2.416c6.191-1.994,12.402-0.236,18.634-0.098
	c6.479,0.143,12.823-1.017,19.368-0.437c5.221,0.463,10.773,0.625,15.972,1.35c5.335,0.743,6.141,2.81,10.031,5.548
	c6.366,4.48,13.592,7.369,21.04,9.107c0.39,0.091,0.762,0.256,1.215,0.411c-0.149,0.469-0.187,0.956-0.437,1.279
	c-0.311,0.402-0.753,0.841-1.217,0.96c-1.05,0.27-2.144,0.432-3.229,0.499c-2.499,0.154-5.002,0.269-7.505,0.318
	c-2.72,0.053-5.441,0.012-8.199,0.251c0.276,0.102,0.544,0.244,0.828,0.299c5.228,0.999,10.439,2.111,15.693,2.946
	c5.927,0.942,11.891,1.664,17.848,2.407c1.018,0.127,1.943,0.239,2.866,1.168c-1.215,0.167-2.226,0.319-3.241,0.444
	c-4.287,0.525-8.566,1.154-12.867,1.509c-1.981,0.163-3.857,0.57-5.726,1.146c-0.199,0.061-0.379,0.186-0.731,0.365
	c5.234,0.503,10.281,0.452,15.326,0.459c1.049,0.001,2.099-0.005,3.148-0.018c1.543-0.02,3.074-0.138,4.614-0.294
	c2.112-0.214,4.273,0.048,6.412,0.112c0.317,0.01,0.633,0.078,0.95,0.08c5.382,0.038,10.764,0.094,16.146,0.088
	c1.817-0.002,3.635-0.17,5.452-0.252c0.317-0.014,0.647-0.027,0.954,0.041c3.152,0.7,6.301,1.414,9.449,2.132
	c0.308,0.07,0.69,0.104,0.892,0.302c0.858,0.841,1.914,0.701,2.95,0.703c17.245,0.033,34.489,0.074,51.734,0.075
	c0.969,0,1.444,0.307,1.85,1.172c0.984,2.097,2.092,4.136,3.229,6.352c-0.479,0.056-0.81,0.126-1.143,0.129
	c-3.923,0.033-7.846,0.073-11.769,0.077c-17.109,0.02-34.218,0.018-51.326,0.048c-7.384,0.013-14.769,0.119-22.153,0.126
	c-50.09,0.043-100.181,0.062-150.271,0.13c-2.458,0.003-4.798-0.369-7.104-1.134c-1.514-0.503-3.027-1.01-4.546-1.498
	c-1.035-0.333-1.787-0.163-2.187,0.758c-0.648,1.493-2.059,1.674-3.296,2.083c-0.796,0.263-1.709,0.189-2.572,0.23
	c-4.549,0.217-9.097,0.442-13.647,0.626c-5.416,0.219-10.833,0.441-16.251,0.566c-1.533,0.035-3.071-0.292-4.61-0.408
	c-3.308-0.249-6.619-0.474-9.929-0.699c-0.796-0.054-1.594-0.073-2.4-0.266c0.34-0.103,0.68-0.207,1.111-0.338
	c-0.19-0.122-0.256-0.201-0.322-0.201c-3.466-0.021-6.932-0.036-10.398-0.048c-0.593-0.002-1.186,0.009-1.779,0.03
	c-0.847,0.03-1.489-0.353-1.998-0.989c-0.395-0.493-0.689-1.18-1.42-1.162c-0.942,0.023-2.048-0.093-2.791,0.347
	c-2.679,1.584-5.593,1.786-8.553,1.791c-5.428,0.008-10.855-0.04-16.283-0.091c-2.687-0.026-5.374-0.194-8.058-0.148
	c-3.182,0.055-6.362,0.279-9.543,0.418c-3.093,0.135-6.186,0.241-9.279,0.385c-3.044,0.142-6.087,0.308-9.129,0.484
	c-0.45,0.026-0.926,0.094-1.334,0.271c-1.7,0.737-3.485,0.518-5.243,0.494c-1.637-0.022-3.272-0.164-4.908-0.252
	c-1.09-0.059-2.179-0.13-3.269-0.172c-1.179-0.046-2.296-0.01-3.422,0.6c-0.836,0.454-1.909,0.584-2.889,0.639
	c-2.915,0.165-5.814-0.202-8.721-0.383c-2.683-0.167-5.379-0.101-8.07-0.143c-0.654-0.01-1.349,0.176-1.73-0.696
	c-0.101-0.232-0.725-0.31-1.115-0.332c-3.862-0.22-7.724-0.437-11.589-0.606c-2.957-0.13-5.919-0.161-8.876-0.291
	c-2.043-0.089-4.084-0.254-6.123-0.42c-0.841-0.068-1.465,0.332-2.137,0.738c-1.492,0.902-2.951,1.971-4.873,1.505
	c-4.544,0.349-9.046-0.487-13.582-0.476c-2.542,0.006-5.086-0.266-7.625-0.465c-0.63-0.049-1.137,0.056-1.664,0.402
	c-1.437,0.944-2.309,0.827-3.422-0.452c-2.121-2.439-4.217-4.901-6.331-7.346C4.251,36.014,3.66,35.39,3,34.663z"/>
<path fill="#512F2E" d="M570.865,40.856c-1.118,0.813-1.946,1.542-3.141,1.596c-2.272,0.104-4.544,0.26-6.817,0.274
	c-13.359,0.082-26.719,0.116-40.078,0.21c-1.081,0.008-1.74-0.257-2.234-1.273c-0.97-1.999-2.078-3.931-3.25-6.118
	c0.684-0.027,1.196-0.067,1.707-0.066c11.308,0.027,22.616,0.059,33.924,0.09c2.052,0.006,4.156-0.274,6.141,0.093
	c1.98,0.365,3.839,1.383,5.755,2.103c2.258,0.848,4.522,1.681,6.781,2.528C569.945,40.403,570.22,40.555,570.865,40.856z"/>
<path fill="#512F2E" d="M511.327,42.856c-3.524,0-7.06,0-10.762,0c-1.403-2.397-2.854-4.877-4.417-7.547
	c2.127,0,3.983-0.012,5.838,0.003c1.682,0.014,3.364,0.047,5.045,0.096c0.435,0.013,0.905-0.042,1.163,0.501
	c1.05,2.216,2.128,4.419,3.188,6.631C511.411,42.604,511.354,42.711,511.327,42.856z"/>
</svg>
