<?xml version="1.0" encoding="utf-8"?>
<!-- Generator: Adobe Illustrator 17.0.0, SVG Export Plug-In . SVG Version: 6.00 Build 0)  -->
<!DOCTYPE svg PUBLIC "-//W3C//DTD SVG 1.1//EN" "http://www.w3.org/Graphics/SVG/1.1/DTD/svg11.dtd">
<svg version="1.1" id="Layer_1" xmlns="http://www.w3.org/2000/svg" xmlns:xlink="http://www.w3.org/1999/xlink" x="0px" y="0px"
	 width="568.428px" height="49.277px" viewBox="0 0 568.428 49.277" enable-background="new 0 0 568.428 49.277"
	 xml:space="preserve">
<path fill="#512F2E" d="M0.184,13.525c0.996-2.304,1.943-4.492,2.978-6.886c1.913-0.526,4.052-1.111,6.187-1.708
	c0.303-0.085,0.6-0.209,0.879-0.354c0.603-0.314,1.161-0.753,1.796-0.959c0.945-0.307,1.47-0.946,1.917-1.769
	c0.758-1.397,2.114-2.048,3.678-1.796c1.572,0.254,3.128,0.64,4.707,0.808c2.213,0.234,4.441,0.359,6.666,0.455
	c1.594,0.069,3.193,0.001,4.79,0.02c0.59,0.007,1.257-0.072,1.756,0.166c1.889,0.899,3.847,0.439,5.773,0.411
	c2.138-0.031,4.275-0.192,6.412-0.318c0.666-0.039,1.167,0.224,1.757,0.525c1.339,0.682,2.725,1.417,4.35,1.103
	c0.193-0.037,0.438,0.051,0.624,0.148c2.153,1.132,4.533,1.291,6.874,1.599c1.035,0.136,2.098,0.092,3.124,0.266
	c1.127,0.191,2.16-0.018,3.201-0.388c2.562-0.912,5.205-1.607,7.6-2.967c0.377-0.214,0.973-0.135,1.449-0.064
	c2.204,0.327,4.393,0.772,6.605,1.031c1.624,0.19,3.274,0.222,4.911,0.21c4.514-0.031,9.008,0.243,13.49,0.746
	c0.449,0.05,0.913,0.115,1.328,0.278c2.182,0.857,4.313,0.773,6.486-0.1c1.261-0.507,2.608-0.798,3.916-1.189
	c0.392-0.117,0.896-0.132,1.149-0.389c0.856-0.871,1.99-1.039,3.062-1.354c0.413-0.122,0.937-0.198,1.317-0.052
	c2.368,0.909,4.886,1.057,7.34,1.514c3.72,0.692,7.481,0.989,11.262,1.12c4.824,0.168,9.645,0.42,14.468,0.606
	c0.533,0.021,1.084-0.114,1.608-0.247c1.456-0.368,2.899-0.786,4.354-1.159c0.848-0.217,1.515-0.608,2.204-1.217
	c0.814-0.719,2.047-1.011,3.171-0.763c4.03,0.891,8.148,0.73,12.218,1.125c1.492,0.145,2.983,0.371,4.478,0.411
	c1.497,0.041,3-0.1,4.5-0.168c2.456-0.111,4.918-0.156,7.366-0.365c1.989-0.17,3.953-0.669,5.943-0.793
	c2.632-0.165,5.279-0.133,7.919-0.131c1.088,0.001,2.175,0.18,3.265,0.216c1.67,0.056,3.345,0.016,5.011,0.116
	c0.392,0.023,0.852,0.366,1.119,0.694c0.513,0.631,0.993,1.32,1.321,2.058c0.175,0.394,0.091,0.967-0.037,1.413
	c-0.174,0.603-0.503,1.162-0.832,1.887c0.587,0.463,1.118,0.941,1.707,1.332c0.834,0.554,1.72,1.03,2.568,1.564
	c1.679,1.057,3.472,1.465,5.465,1.254c0.776-0.082,1.59,0.28,2.394,0.354c1.992,0.182,3.995,0.249,5.98,0.484
	c1.715,0.203,3.402,0.631,5.114,0.857c3.155,0.416,6.318,0.771,9.481,1.123c1.219,0.136,2.455,0.145,3.669,0.313
	c0.65,0.09,1.27,0.394,1.924,0.608c-0.219,0.935-0.765,1.292-1.487,1.582c-0.871,0.35-1.68,0.853-2.727,1.4
	c1.502,0.584,2.817,0.412,4.09,0.474c4.639,0.225,9.292,0.248,13.92,0.607c4.913,0.382,9.823,0.576,14.745,0.485
	c1.328-0.025,2.497,0.299,4.032,1.166c-0.391,0.102-0.61,0.159-0.785,0.204c0.365,0.433,0.685,0.813,1.184,1.405
	c-4.188,0.599-7.901,2.038-11.97,3.067c1.122,0.552,2.036,1.007,2.956,1.448c0.115,0.055,0.283,0.085,0.396,0.043
	c1.864-0.685,3.707-0.043,5.545,0.122c3.033,0.272,6.053,0.691,9.083,1.004c4.567,0.471,9.133,0.965,13.709,1.337
	c4.578,0.372,9.163,0.694,13.751,0.877c4.918,0.196,9.844,0.192,14.766,0.302c2.319,0.051,4.63,0.105,6.867,0.919
	c0.734,0.267,1.618,0.157,2.434,0.161c3.738,0.016,7.482-0.126,11.212,0.046c5.04,0.232,10.087,0.539,15.097,1.107
	c5.917,0.672,11.799,1.647,17.694,2.51c3.287,0.482,6.568,0.95,9.903,1.037c1.695,0.044,3.485-0.046,5.007,1.031
	c0.204,0.144,0.511,0.162,0.776,0.193c0.27,0.032,0.547,0.01,0.82,0.01c26.964,0.033,53.929,0.066,80.893,0.098
	c0.497,0.001,0.994,0,1.565,0c1.273,2.491,2.529,4.947,3.91,7.648c-0.786,0-1.314-0.001-1.842,0
	c-14.646,0.021-29.291,0.042-43.937,0.062c-65.646,0.091-131.291,0.194-196.937,0.263c-18.931,0.02-37.863-0.058-56.795-0.09
	c-1.412-0.002-2.825-0.031-4.235,0.018c-0.958,0.033-1.831,0.312-2.661,0.891c-1.343,0.938-2.962,0.95-4.473,0.683
	c-3.477-0.614-6.968-0.718-10.479-0.675c-1.688,0.021-3.377-0.023-5.064,0.009c-3.826,0.072-7.652,0.202-11.479,0.239
	c-0.845,0.008-1.729-0.165-2.532-0.44c-1.821-0.623-3.622-1.202-5.596-1.019c-0.713,0.066-1.447-0.1-2.171-0.154
	c-2.749-0.204-5.443,0.368-8.163,0.575c-1.497,0.114-3.002,0.128-4.497,0.256c-1.444,0.124-2.888,0.29-4.319,0.519
	c-2.468,0.395-4.926,0.854-7.389,1.283c-1.388,0.242-2.784,0.44-4.162,0.728c-1.757,0.367-3.49,0.407-5.281,0.161
	c-3.873-0.532-7.777-0.838-11.646-1.393c-4.704-0.674-9.425-0.859-14.163-0.853c-0.728,0.001-1.464,0.019-2.183,0.123
	c-1.715,0.25-3.322-0.221-4.948-0.629c-0.786-0.198-1.586-0.45-2.383-0.462c-1.315-0.021-2.66-0.004-3.944,0.246
	c-1.792,0.349-3.529,0.125-5.29-0.086c-2.197-0.263-4.232,0.261-6.122,1.375c-0.51,0.3-1.002,0.639-1.465,1.007
	c-1.26,1.002-2.744,1.23-4.261,1.129c-3.176-0.211-6.343-0.552-9.519-0.779c-3.858-0.276-7.718-0.513-11.58-0.718
	c-1.82-0.097-3.647-0.067-5.47-0.123c-0.817-0.025-1.636-0.082-2.446-0.186c-1.946-0.249-3.888-0.313-5.854-0.306
	c-1.849,0.007-3.701-0.373-5.547-0.615c-0.299-0.039-0.644-0.178-0.85-0.386c-0.851-0.862-1.923-0.954-3.029-0.962
	c-1.003-0.008-2.007,0.021-3.009-0.009c-1.321-0.039-1.591-0.314-1.7-1.59c-0.092-1.087-0.19-2.174-0.285-3.262
	c-0.016-0.181,0.033-0.396-0.048-0.54c-0.836-1.483-0.784-3.156-1.052-4.761c-0.06-0.358-0.122-0.731-0.271-1.057
	c-0.817-1.794-0.324-3.461,0.656-4.955c0.662-1.01,0.925-1.91,0.46-3.038c-0.167-0.406-0.221-0.892-0.204-1.336
	c0.126-3.226-0.752-6.217-2.076-9.109C0.788,14.86,0.488,14.196,0.184,13.525z"/>
<path fill="#512F2E" d="M568.76,43.406c-1.147,0.794-1.973,1.535-3.174,1.586c-2.318,0.099-4.635,0.257-6.954,0.272
	c-13.313,0.082-26.627,0.115-39.94,0.212c-1.099,0.008-1.733-0.299-2.221-1.294c-0.978-1.994-2.077-3.928-3.244-6.107
	c0.698-0.025,1.213-0.06,1.728-0.058c11.308,0.028,22.616,0.059,33.924,0.092c2.097,0.006,4.247-0.263,6.276,0.112
	c1.98,0.366,3.833,1.404,5.749,2.13c2.171,0.822,4.35,1.622,6.522,2.44C567.757,42.914,568.071,43.086,568.76,43.406z"/>
<path fill="#512F2E" d="M494.086,37.941c3.825,0,7.37,0.005,10.915-0.005c0.619-0.002,0.986,0.247,1.254,0.823
	c0.942,2.018,1.935,4.011,2.903,6.017c0.074,0.153,0.097,0.33,0.171,0.594c-3.662,0-7.232,0-10.903,0
	C497.025,42.973,495.591,40.517,494.086,37.941z"/>
</svg>
