<?xml version="1.0" encoding="utf-8"?>
<!-- Generator: Adobe Illustrator 17.0.0, SVG Export Plug-In . SVG Version: 6.00 Build 0)  -->
<!DOCTYPE svg PUBLIC "-//W3C//DTD SVG 1.1//EN" "http://www.w3.org/Graphics/SVG/1.1/DTD/svg11.dtd">
<svg version="1.1" id="Layer_1" xmlns="http://www.w3.org/2000/svg" xmlns:xlink="http://www.w3.org/1999/xlink" x="0px" y="0px"
	 width="567.158px" height="46.572px" viewBox="0 0 567.158 46.572" enable-background="new 0 0 567.158 46.572"
	 xml:space="preserve">
<path fill="#512F2E" d="M186.751,41.959c-2.208-0.074-4.32-0.349-6.388-0.157c-2.114,0.196-4.197,0.804-6.27,1.322
	c-1.366,0.341-2.703,0.812-4.034,1.281c-1.642,0.579-3.245,0.763-4.912,0.036c-0.558-0.243-1.247-0.25-1.877-0.254
	c-3.558-0.022-7.117-0.047-10.675-0.001c-3.914,0.05-7.827,0.173-11.741,0.27c-3.368,0.084-6.736,0.214-10.105,0.25
	c-1.497,0.016-2.996-0.201-4.495-0.214c-1.041-0.009-2.097,0.07-3.121,0.252c-2.366,0.42-4.732,0.283-7.063-0.078
	c-1.026-0.159-1.965-0.877-2.943-1.342c-0.357-0.17-0.711-0.486-1.068-0.488c-1.814-0.011-3.625-0.118-5.435,0.318
	c-0.939,0.226-1.993,0.131-2.972,0.004c-2.019-0.261-3.983-0.342-5.895,0.557c-0.517,0.243-1.139,0.308-1.721,0.358
	c-9.369,0.794-18.761,0.693-28.149,0.633c-5.56-0.035-11.118-0.234-16.678-0.339c-1.047-0.02-2.095,0.051-3.143,0.084
	c-1.372,0.043-2.583-0.319-3.647-1.244c-1.069-0.929-1.743-0.935-2.906-0.113c-0.593,0.419-1.203,0.861-1.663,1.412
	c-0.868,1.038-2.005,1.207-3.204,1.129C33.095,45.402,29.557,45.51,26,45.658c-4.543,0.189-9.118,0.309-13.642-0.424
	c-1.069-0.173-2.116-0.541-3.138-0.915c-0.446-0.163-0.873-0.509-1.19-0.874c-1.793-2.061-3.559-4.145-5.31-6.242
	c-0.249-0.298-0.487-0.696-0.522-1.068c-0.174-1.846-0.95-3.503-1.522-5.227c-0.623-1.877-0.865-3.814-0.657-5.785
	c0.104-0.983,0.418-1.851,1.535-2.197c0.243-0.075,0.505-0.528,0.522-0.82c0.13-2.271,0.208-4.546,0.29-6.82
	c0.031-0.85-0.656-1.286-1.162-1.767c-0.561-0.533-0.856-1.127-1.028-1.863C-0.094,10.506-0.09,9.489,1.061,8.8
	C1.098,8.777,1.13,8.739,1.156,8.702C2.879,6.254,4.596,3.8,6.333,1.361c0.17-0.238,0.431-0.504,0.694-0.564
	c0.569-0.131,1.171-0.21,1.752-0.179c1.954,0.102,3.904,0.282,5.857,0.388c0.722,0.039,1.45-0.057,2.175-0.071
	c1.31-0.027,2.621-0.049,3.931-0.055c2.099-0.009,4.225-0.217,6.29,0.047c3.286,0.421,6.55,0.057,9.821,0.093
	c3.277,0.036,6.557-0.261,9.833-0.214c3.637,0.052,7.271,0.333,10.907,0.504c1.138,0.054,2.277,0.089,3.416,0.11
	c5.376,0.097,10.753,0.174,16.129,0.29c0.952,0.021,1.944,0.052,2.842,0.325c1.602,0.487,3.214,0.499,4.852,0.49
	c3.787-0.022,7.574-0.024,11.36,0.001c1.548,0.01,3.098,0.195,4.642,0.152c5.188-0.143,10.374-0.352,15.56-0.538
	c2.365-0.085,4.753-0.41,7.089-0.19c1.955,0.184,3.897,0.292,5.85,0.277c0.76-0.006,1.531-0.148,2.277-0.315
	c1.821-0.407,3.621-0.766,5.524-0.659c1.997,0.113,4.009-0.068,6.014-0.054c2.598,0.018,5.195,0.153,7.792,0.146
	c3.05-0.008,6.099-0.136,9.149-0.17c2.916-0.032,5.833-0.038,8.748,0.008c0.62,0.01,1.265,0.217,1.848,0.457
	c2.102,0.868,4.297,1.129,6.546,1.157c0.953,0.012,1.904,0.127,2.858,0.165c4.152,0.166,8.261-0.377,12.384-0.728
	c3.987-0.339,7.982-0.66,11.979-0.768c2.167-0.058,4.394,0.136,6.501,0.621c1.198,0.275,2.277,0.229,3.439,0.174
	c3.594-0.171,7.194-0.221,10.787-0.403c3.087-0.157,6.168-0.44,9.253-0.65c1.136-0.077,2.275-0.143,3.413-0.15
	c2.782-0.018,5.533-0.261,8.292-0.665c2.925-0.428,5.889-0.523,8.854-0.202c0.747,0.081,1.526-0.153,2.28-0.101
	c0.702,0.048,1.566,0.073,2.053,0.477c1.218,1.011,2.634,1.214,4.066,1.28c2.595,0.119,5.198,0.079,7.797,0.13
	c0.908,0.018,1.819,0.195,2.722,0.154c4.498-0.206,8.994-0.455,13.49-0.7c1.408-0.077,2.813-0.21,4.221-0.274
	c1.247-0.056,2.353,0.338,3.42,1.016c1.299,0.827,2.691,1.508,4.055,2.258c0.736-0.69,1.444-1.322,2.113-1.991
	c0.975-0.975,2.144-1.442,3.503-1.658c3.659-0.58,7.255,0.031,10.863,0.441c3.659,0.415,7.315,0.859,10.972,1.293
	c0.359,0.043,0.76,0.022,1.064,0.18c1.206,0.626,2.455,0.441,3.725,0.353c1.953-0.135,3.911-0.215,5.868-0.25
	c3.511-0.063,7.024-0.061,10.536-0.111c2.596-0.037,5.192-0.164,7.788-0.159c3.282,0.006,6.567,0.045,9.845,0.195
	c1.283,0.059,2.611,0.222,3.755,0.974c0.177,0.116,0.421,0.142,0.639,0.182c0.98,0.179,1.989,0.256,2.936,0.54
	c2.076,0.623,4.198,0.754,6.341,0.843c2.544,0.105,5.086,0.256,7.625,0.448c0.954,0.072,1.693-0.254,2.337-0.883
	c0.324-0.316,0.708-0.643,0.868-1.043c0.581-1.454,1.93-1.791,3.165-2.3c0.197-0.081,0.462-0.086,0.671-0.032
	c2.765,0.71,5.618,0.442,8.416,0.779c1.715,0.206,3.44,0.348,5.146,0.614c0.916,0.143,1.772,0.097,2.689-0.041
	c2.065-0.312,4.152-0.574,6.237-0.63c3.052-0.083,6.111-0.015,9.164,0.075c3.512,0.103,6.966,0.699,10.396,1.433
	c0.525,0.112,1.062,0.162,1.61,0.244c0.168-0.326,0.323-0.552,0.407-0.801c0.534-1.574,2.104-2.185,3.618-1.946
	c1.662,0.262,3.338,0.45,4.991,0.762c4.039,0.763,8.108,1.106,12.216,1.148c1.111,0.011,2.273,0.024,3.312,0.639
	c0.285,0.169,0.704,0.141,1.063,0.15c2.774,0.068,5.556,0.014,8.321,0.209c4.147,0.293,8.262,0.27,12.402-0.204
	c3.709-0.425,7.362,0.035,10.849,1.518c1.504,0.64,3.059,1.159,4.582,1.73c1.331-1.233,3.012-1.169,4.56-1.287
	c3.087-0.234,6.203-0.355,9.273,0.178c1.829,0.318,3.627,0.834,5.422,1.321c1.089,0.296,2.15,0.698,3.218,1.066
	c1.841,0.634,3.457,1.61,4.718,3.126c0.167,0.2,0.373,0.396,0.602,0.513c1.78,0.911,3.627,1.409,5.657,1.015
	c1.522-0.295,3.076-0.549,4.549,0.212c1.486,0.767,2.592,1.978,3.559,3.301c0.551,0.753,0.349,1.273-0.463,1.758
	c-0.876,0.523-1.809,0.725-2.828,0.867c-3.923,0.548-7.826-0.183-11.737-0.041c-0.58,0.021-1.161,0.003-1.779,0.13
	c0.902,1.068,1.969,1.848,3.218,2.336c3.137,1.227,6.278,2.45,9.445,3.597c1.968,0.712,3.983,1.295,5.985,1.912
	c0.964,0.297,1.946,0.54,3.223,0.891c-0.55,0.228-0.871,0.415-1.218,0.496c-2.754,0.646-5.548,1.003-8.372,1.144
	c-0.432,0.022-0.863,0.077-1.294,0.117c-0.002,0.094-0.005,0.188-0.007,0.281c0.942,0.12,1.886,0.222,2.825,0.363
	c1.26,0.189,2.532,0.335,3.768,0.631c1.9,0.454,3.524,1.472,4.935,2.803c0.435,0.41,0.875,0.627,1.456,0.584
	c0.091-0.007,0.183,0.008,0.274-0.001c3.915-0.416,7.555,0.465,11.1,2.119c2.14,0.999,4.423,1.688,6.64,2.523
	c0.369,0.139,0.725,0.312,1.299,0.561c-0.985,0.976-1.948,1.593-3.15,1.672c-2.18,0.142-4.365,0.271-6.548,0.281
	c-12.682,0.057-25.365,0.058-38.047,0.121c-4.146,0.021-8.292,0.278-12.435,0.233c-4.276-0.047-8.549-0.333-12.824-0.507
	c-1.23-0.05-2.515-0.319-3.681-0.062c-4.097,0.903-8.226,0.372-12.337,0.477c-4.104,0.105-8.212,0.023-12.318,0.023
	c-4.152,0-8.304-0.016-12.455,0.014c-0.807,0.006-1.614,0.189-2.42,0.299c-0.765,0.104-1.525,0.285-2.292,0.318
	c-4.185,0.182-8.37,0.369-12.557,0.475c-3.875,0.098-7.733-0.15-11.558-0.832c-0.757-0.135-1.534-0.226-2.302-0.226
	c-5.109,0-10.218-0.033-15.325,0.087c-1.664,0.039-3.316,0.522-4.979,0.761c-1.89,0.272-3.783,0.516-5.679,0.74
	c-3.432,0.406-6.865,0.798-10.3,1.177c-2.395,0.264-4.789,0.625-7.192,0.718c-5.372,0.208-10.75,0.374-16.126,0.372
	c-5.604-0.002-11.21-0.16-16.811-0.367c-4.046-0.15-8.083-0.515-12.126-0.738c-1.499-0.083-3.008,0.028-4.506-0.061
	c-3.678-0.22-7.358-0.435-11.025-0.783c-3.595-0.341-7.189-0.306-10.789-0.297c-1.223,0.003-2.461-0.102-3.664-0.317
	c-0.671-0.12-1.284-0.569-2.122-0.964c-3.73,1.218-7.872,1.461-11.981,1.895c-3.616,0.382-7.242,0.674-10.861,1.024
	c-0.723,0.07-1.457,0.156-2.155,0.346c-5.189,1.406-10.47,1.05-15.744,0.865c-1.503-0.053-3.007-0.087-4.511-0.116
	c-3.505-0.066-7.011-0.158-10.516-0.171c-2.277-0.008-4.554,0.167-6.83,0.149c-8.163-0.062-16.325-0.202-24.488-0.241
	c-2.272-0.011-4.546,0.235-6.819,0.342c-3.157,0.149-6.263-0.366-9.383-0.722c-1.444-0.165-2.899-0.241-4.348-0.365
	c-1.541-0.132-3.081-0.269-4.62-0.416c-0.223-0.021-0.442-0.106-0.659-0.172C187.12,44.208,186.711,43.642,186.751,41.959z"/>
<path d="M121.254,45.716c-0.65,0-1.301,0-1.951,0c-0.001-0.05-0.001-0.1-0.002-0.15c0.635,0,1.269,0,1.904,0
	C121.221,45.616,121.238,45.666,121.254,45.716z"/>
</svg>
