<?xml version="1.0" encoding="utf-8"?>
<!-- Generator: Adobe Illustrator 17.0.0, SVG Export Plug-In . SVG Version: 6.00 Build 0)  -->
<!DOCTYPE svg PUBLIC "-//W3C//DTD SVG 1.1//EN" "http://www.w3.org/Graphics/SVG/1.1/DTD/svg11.dtd">
<svg version="1.1" id="Layer_1" xmlns="http://www.w3.org/2000/svg" xmlns:xlink="http://www.w3.org/1999/xlink" x="0px" y="0px"
	 width="577.479px" height="54.77px" viewBox="0 0 577.479 54.77" enable-background="new 0 0 577.479 54.77" xml:space="preserve">
<path fill="#512F2E" d="M577.479,43.053c-0.457,0.777-0.931,1.606-1.429,2.42c-0.497,0.814-1.018,1.614-1.574,2.492
	c-3.586,0.385-7.204,0.667-10.788,1.186c-3.691,0.535-7.342,1.335-11.022,1.953c-2.826,0.475-5.644,0.926-8.432,1.647
	c-2.066,0.534-4.311,0.485-6.327-0.355c-3.072-1.282-6.283-1.82-9.539-2.239c-0.857-0.11-1.706-0.285-2.565-0.372
	c-1.037-0.105-2.08-0.16-3.122-0.214c-0.455-0.024-0.912,0.009-1.368,0.011c-6.98,0.034-13.96,0.048-20.94,0.104
	c-8.803,0.072-17.607,0.174-26.41,0.27c-7.891,0.086-15.781,0.179-23.672,0.273c-7.48,0.089-14.959,0.192-22.439,0.272
	c-9.442,0.101-18.884,0.208-28.326,0.269c-17.108,0.111-34.216,0.184-51.323,0.289c-3.695,0.022-7.393,0.032-11.083,0.2
	c-1.701,0.077-3.384,0.52-5.088,0.799c0.587,2.265,0.376,2.641-1.754,2.698c-2.047,0.055-4.098-0.071-6.147-0.123
	c-1.093-0.028-2.187-0.063-3.28-0.104c-2.594-0.096-5.187-0.209-7.781-0.292c-3.279-0.105-6.576-0.006-9.835-0.317
	c-6.27-0.599-12.56-0.499-18.837-0.769c-3.091-0.133-6.188-0.175-9.282-0.17c-1.997,0.003-3.999,0.294-5.99,0.218
	c-1.775-0.068-3.509-0.574-4.934-1.737c-0.524-0.428-1.084-0.411-1.672-0.411c-5.247-0.003-10.494-0.003-15.741-0.005
	c-1.825-0.001-3.65,0.016-5.475-0.02c-0.621-0.012-1.143,0.118-1.66,0.472c-2.622,1.795-5.599,2.017-8.642,1.858
	c-1.862-0.097-3.718-0.347-5.58-0.375c-3.965-0.059-7.932-0.005-11.898-0.022c-3.412-0.014-6.833,0.079-10.234-0.133
	c-3.657-0.228-7.271,0.244-10.906,0.311c-3.237,0.06-6.476,0.05-9.713,0.103c-4.509,0.074-9.018,0.254-13.526,0.24
	c-2.45-0.008-4.899-0.326-7.348-0.504c-0.5-0.036-0.999-0.099-1.5-0.107c-4.468-0.066-8.936-0.145-13.404-0.174
	c-4.56-0.029-9.12-0.035-13.68,0.013c-1.273,0.014-2.533,0.086-3.786-0.207c-0.207-0.048-0.446-0.008-0.662,0.036
	c-2.555,0.515-4.85-0.324-7.122-1.331c-0.385-0.171-0.841-0.256-1.264-0.258c-4.467-0.015-8.935-0.005-13.402-0.002
	c-1.039,0.001-2.077,0.005-3.116-0.002c-0.363-0.003-0.743,0.028-1.087-0.063c-3.007-0.793-6.072-0.439-9.111-0.425
	c-0.969,0.004-1.956,0.416-2.9,0.743c-1.18,0.409-2.322,0.371-3.474-0.037c-0.94-0.332-1.876-0.677-2.904-1.048
	c-0.33,1.576-1.471,1.895-2.839,2.049c-4.144,0.466-8.28,0.213-12.419-0.002c-0.683-0.036-1.367-0.059-2.051-0.063
	c-4.008-0.026-8.015-0.033-12.023-0.073c-1.639-0.017-3.277-0.155-4.916-0.145c-3.238,0.02-6.475,0.119-9.713,0.161
	c-3.647,0.047-7.295,0.068-10.943,0.095c-2.234,0.017-4.453-0.114-6.667-0.478c-1.791-0.294-3.595-0.355-5.414-0.006
	c-2.568,0.492-5.115,0.151-7.5-0.823c-1.659-0.678-3.185-1.692-4.739-2.608c-0.418-0.246-0.766-0.65-1.073-1.039
	c-0.652-0.826-1.099-1.709-0.262-2.709c-0.507-0.659-0.549-1.323-0.368-2.092c0.596-2.53,0.123-5.084,0.046-7.628
	c-0.01-0.326-0.228-0.674-0.424-0.961c-0.771-1.131-0.79-1.386-0.012-2.568c0.548-0.831,1.114-1.65,1.606-2.376
	c-0.508-0.579-1.01-1.099-1.451-1.666c-0.615-0.79-1.107-1.687-1.791-2.407c-1.079-1.136-1.266-2.443-1.063-3.893
	c0.21-1.497,0.369-2.988-0.244-4.445c-0.26-0.618-0.136-1.233,0.445-1.562c0.809-0.459,1.472-1.003,1.947-1.822
	c0.191-0.33,0.621-0.522,1.048-0.86c0-0.593,0.126-1.3-0.024-1.942C3.12,8.435,3.998,7.052,4.957,5.717
	c0.66-0.919,1.492-1.714,2.233-2.575c0.629-0.73,1.506-0.962,2.376-1.195c0.201-0.054,0.514-0.048,0.65,0.073
	c1.151,1.017,2.648,0.869,3.992,1.208c0.878,0.222,1.803,0.249,2.697,0.415c3.177,0.592,6.271,0.193,9.268-0.883
	c3.215-1.154,6.531-1.561,9.913-1.688c4.636-0.174,9.268-0.407,13.881-0.954c2.09-0.248,4.149-0.101,6.233,0.372
	c5.322,1.208,10.649,2.411,16.107,2.894c4.029,0.357,8.047,0.827,12.071,1.241c0.271,0.028,0.552,0.046,0.82,0.008
	c2.601-0.37,5.164,0.216,7.745,0.282c2.453,0.062,4.91-0.113,7.366-0.137c1.18-0.011,2.361,0.069,3.54,0.139
	c1.27,0.075,2.537,0.199,3.806,0.276c0.864,0.052,1.738,0.151,2.593,0.07c2.474-0.233,4.909,0.11,7.348,0.4
	c3.884,0.461,7.753,1.09,11.649,1.381c2.297,0.171,4.635-0.128,6.949-0.299c3.816-0.282,7.626-0.525,11.46-0.425
	c2.731,0.071,5.468-0.137,8.202-0.153c3.19-0.018,6.38,0.081,9.569,0.049c2.089-0.021,4.18-0.153,6.265-0.297
	c1.084-0.075,2.156-0.383,3.237-0.403c1.175-0.022,2.358,0.135,3.53,0.27c3.388,0.389,6.77,0.824,10.159,1.207
	c3.207,0.363,6.418,0.7,9.631,1.008c0.474,0.045,0.999-0.048,1.449-0.216c1.543-0.575,3.119-0.513,4.686-0.267
	c3.256,0.511,6.531,0.625,9.809,0.476c1.399-0.064,2.783-0.438,4.177-0.648c1.618-0.244,3.234-0.516,4.861-0.677
	c1.732-0.172,3.416-0.507,5.039-1.124c0.626-0.238,1.221-0.385,1.813,0.051c1.951,1.438,4.24,2.049,6.525,2.665
	c0.659,0.177,1.351,0.245,1.994,0.464c2.321,0.793,4.681,0.504,7.029,0.265c0.593-0.06,1.241-0.357,1.707-0.738
	c1.379-1.126,2.972-1.751,4.659-2.161c0.459-0.111,0.995-0.006,1.476,0.094c3.386,0.709,6.744,1.576,10.155,2.128
	c2.82,0.456,5.699,0.547,8.552,0.804c3.261,0.294,6.527,0.536,9.779,0.903c3.36,0.378,6.71,0.505,10.083,0.22
	c1.451-0.122,2.916-0.082,4.374-0.126c2.824-0.086,5.65-0.147,8.471-0.285c1.176-0.058,2.352-0.242,3.514-0.448
	c0.903-0.16,1.732-0.522,2.325-1.295c0.809-1.056,2.149-1.44,3.46-1.037c1.785,0.549,3.573,1.091,5.361,1.63
	c0.741,0.223,1.469,0.318,2.27,0.207c0.832-0.115,1.671-0.053,2.533,0.279c0.863,0.333,1.873,0.334,2.823,0.384
	c3.965,0.209,7.847,1.016,11.765,1.567c0.314,0.044,0.632,0.09,0.949,0.09c3.833,0.006,7.666,0.062,11.497-0.014
	c3.368-0.067,6.733-0.274,10.098-0.449c0.631-0.033,1.254-0.201,1.87-0.305c0.334-1.049,0.883-1.973,1.907-2.341
	c1.244-0.447,2.554-0.633,3.839,0.009c0.35,0.175,0.751,0.343,1.131,0.35c3.375,0.059,6.751,0.075,10.126,0.12
	c0.578,0.008,1.065-0.06,1.384-0.631c0.715-1.284,1.951-1.567,3.269-1.555c2.961,0.028,5.923,0.182,8.882,0.144
	c2.546-0.032,5.089-0.276,7.634-0.392c1.184-0.054,2.371-0.025,3.557-0.035c0.867-0.007,1.679-0.117,2.509-0.498
	c0.713-0.328,1.589-0.38,2.397-0.401c1.322-0.035,2.621-0.068,3.862-0.62c0.24-0.107,0.66-0.057,0.883,0.092
	c0.984,0.657,2.07,0.865,3.223,0.97c4.981,0.452,9.934,1.326,14.956,1.161c2.862-0.094,5.72-0.356,8.574-0.605
	c1.922-0.168,3.801-0.045,5.699,0.308c5.186,0.962,10.354,2.008,15.673,2.093c4.367,0.07,8.728,0.457,13.093,0.658
	c1.454,0.067,2.915-0.01,4.372-0.023c4.742-0.04,9.486-0.027,14.227-0.137c4.915-0.113,9.829-0.305,14.74-0.535
	c5.378-0.252,10.736-0.209,16.06,0.705c0.672,0.115,1.35,0.197,2.029,0.266c0.218,0.022,0.51,0.033,0.657-0.087
	c0.805-0.658,1.962-0.709,2.639-1.635c0.256-0.351,0.847-0.586,1.31-0.636c4.157-0.453,8.302-1.141,12.497-1.045
	c1.251,0.029,2.492,0.448,3.742,0.67c0.665,0.118,1.337,0.269,2.007,0.272c1.181,0.005,2.363-0.129,3.545-0.142
	c4.515-0.049,9.031-0.064,13.546-0.114c0.586-0.007,1.168-0.177,1.755-0.205c0.328-0.016,0.804-0.016,0.973,0.182
	c1.364,1.59,3.252,2.48,4.878,3.713c0.691,0.524,1.122,1.173,1.494,1.904c0.081,0.159,0.197,0.382,0.143,0.514
	c-0.337,0.833-0.202,1.709-0.306,2.56c-0.11,0.912-0.868,1.46-1.496,2.055c-0.563,0.533-1.19,1.042-0.911,1.967
	c-0.762,1.676,0.287,3.372-0.076,5.078c-0.28,1.312,0.446,2.323,1.335,3.266c0.709,0.752,1.318,1.621,1.854,2.508
	c0.64,1.06,0.573,2.173-0.108,3.227c-0.223,0.345-0.458,0.682-0.668,1.034c-0.586,0.98-0.774,1.924-0.314,3.096
	C576.534,39.398,576.931,41.179,577.479,43.053z"/>
</svg>
