<?xml version="1.0" encoding="utf-8"?>
<!-- Generator: Adobe Illustrator 17.0.0, SVG Export Plug-In . SVG Version: 6.00 Build 0)  -->
<!DOCTYPE svg PUBLIC "-//W3C//DTD SVG 1.1//EN" "http://www.w3.org/Graphics/SVG/1.1/DTD/svg11.dtd">
<svg version="1.1" id="Layer_1" xmlns="http://www.w3.org/2000/svg" xmlns:xlink="http://www.w3.org/1999/xlink" x="0px" y="0px"
	 width="570.865px" height="49.689px" viewBox="0 0 570.865 49.689" enable-background="new 0 0 570.865 49.689"
	 xml:space="preserve">
<path fill="#512F2E" d="M191.556,13.913c-0.69,0.31-1.224,0.675-1.808,0.79c-2.139,0.421-4.296,0.745-6.443,1.13
	c-1.925,0.345-3.846,0.716-5.764,1.095c-0.287,0.057-0.552,0.221-0.905,0.367c2.313,0.894,4.567,0.825,6.85,0.58
	c1.311-0.14,2.638-0.17,3.958-0.171c2.371-0.002,4.742,0.055,7.113,0.091c0.227,0.003,0.479-0.03,0.677,0.053
	c1.763,0.74,3.654,0.782,5.5,0.873c1.807,0.089,3.632-0.124,5.447-0.248c1.496-0.102,2.985-0.311,4.482-0.393
	c1.529-0.083,2.91,0.459,4.385,1.161c-0.937,0.966-1.852,1.683-3.075,1.829c-2.573,0.306-5.159,0.516-7.728,0.854
	c-4.417,0.581-8.827,1.22-13.235,1.86c-0.981,0.143-1.037,0.276-0.939,1.274c0.016,0.166,0.059,0.329,0.089,0.496
	c-6.177,1.514-12.422,1.586-18.651,1.534c-2.309-0.019-4.508,0.258-6.722,0.775c-2.213,0.517-4.438,0.985-6.895,1.526
	c0.569,0.154,0.9,0.293,1.242,0.329c3.842,0.414,7.685,0.815,11.529,1.213c2.261,0.234,4.518,0.554,6.785,0.655
	c1.717,0.076,3.446-0.133,5.17-0.219c0.089-0.004,0.197-0.014,0.263-0.064c1.946-1.479,4.275-0.997,6.44-1.153
	c3.679-0.265,7.383-0.177,11.063-0.431c3.445-0.238,6.871-0.737,10.307-1.103c2.622-0.279,5.243-0.591,7.872-0.78
	c4.402-0.316,8.808-0.591,13.216-0.782c1.205-0.052,2.438,0.19,3.638,0.409c4.745,0.867,9.488,1.75,14.305,2.096
	c4.401,0.316,8.807,0.582,13.214,0.816c1.586,0.084,3.18,0.021,4.771,0.002c0.69-0.008,1.339-0.108,1.848-0.704
	c0.196-0.229,0.623-0.365,0.946-0.367c4.651-0.022,9.304-0.066,13.954,0.005c2.773,0.043,5.543,0.401,8.314,0.393
	c2.816-0.009,5.629-0.372,8.446-0.44c3.592-0.086,7.189-0.076,10.782-0.023c3.097,0.046,6.191,0.248,9.288,0.314
	c5.652,0.12,11.304,0.24,16.957,0.265c3.534,0.016,6.663,1.292,9.761,2.769c0.589,0.281,0.65,0.676,0.391,1.258
	c3.484,0.869,6.958,1.559,10.481,2.01c1.846,0.236,3.685,0.526,5.53,0.764c0.54,0.07,1.091,0.058,1.638,0.06
	c26.776,0.064,53.552,0.125,80.328,0.186c13.732,0.031,27.464,0.06,41.196,0.089c0.543,0.001,1.085,0,1.7,0
	c1.274,2.492,2.529,4.949,3.909,7.648c-0.786,0-1.315-0.001-1.843,0c-15.238,0.021-30.477,0.041-45.715,0.062
	c-65.051,0.09-130.101,0.187-195.152,0.265c-10.125,0.012-20.25-0.059-30.376-0.089c-1.982-0.006-3.652,0.595-5.13,2.049
	c-1.303,1.282-3.216,1.597-4.863,1.071c-2.488-0.796-4.97-0.54-7.451-0.523c-2.635,0.018-5.28,0.191-7.899,0.486
	c-3.387,0.381-6.761,0.896-10.123,1.457c-2.323,0.388-4.589,0.502-6.871-0.24c-0.616-0.2-1.358-0.183-2.01-0.073
	c-2.469,0.418-4.906-0.089-7.354-0.18c-2.043-0.076-4.076-0.381-6.119-0.475c-3.184-0.145-6.375-0.155-9.559-0.304
	c-2.127-0.099-4.25-0.31-6.369-0.531c-1.022-0.106-1.913-0.517-2.522-1.439c-0.409-0.62-1.042-0.842-1.794-0.711
	c-1.7,0.297-3.402,0.579-5.13,0.872c-0.104,0.323-0.194,0.572-0.264,0.827c-0.178,0.644-0.61,0.936-1.255,1.092
	c-1.309,0.316-2.623,0.253-3.936,0.149c-2.628-0.208-5.249-0.527-7.88-0.665c-1.584-0.083-3.181,0.127-4.773,0.14
	c-3.148,0.026-6.298,0.065-9.444-0.009c-2.956-0.069-5.909-0.301-8.865-0.411c-1.639-0.061-3.283,0.006-4.923-0.03
	c-3.141-0.068-6.282-0.241-9.422-0.233c-2.499,0.006-4.998,0.21-7.496,0.337c-2.819,0.144-5.636,0.318-8.455,0.442
	c-1.183,0.052-2.371,0.012-3.557,0.008c-0.878-0.003-1.71-0.131-2.463-0.664c-0.267-0.189-0.675-0.227-1.024-0.248
	c-2.363-0.139-4.727-0.315-7.092-0.345c-0.83-0.01-1.633,0.109-2.392,0.882c-1.252,1.276-2.998,1.624-4.806,1.444
	c-2.805-0.279-5.608-0.589-8.419-0.799c-3.493-0.261-6.992-0.438-10.489-0.642c-1.226-0.072-2.453-0.129-3.68-0.172
	c-0.82-0.029-1.595,0.089-2.4,0.369c-0.687,0.239-1.527,0.13-2.287,0.054c-2.08-0.21-4.178-0.358-6.223-0.763
	c-2.669-0.529-5.297-1.269-7.934-1.949c-0.432-0.111-0.842-0.351-1.229-0.584c-0.559-0.337-0.733-0.791-0.617-1.499
	c0.281-1.722,0.007-3.41-0.506-5.082c-0.303-0.987-0.408-2.036-0.601-3.056c-0.101-0.536-0.077-1.141-0.328-1.593
	c-0.576-1.038-0.225-2.176-0.481-3.244c-0.074-0.308,0.262-0.748,0.475-1.086c0.532-0.846,1.102-1.669,1.613-2.437
	c-0.165-1.081-0.914-1.527-1.675-1.941c-1.388-0.756-2.137-1.81-2.099-3.487c0.076-3.375,0.013-6.752,0.03-10.128
	C2,10.257,2.053,9.526,2.179,8.815c0.073-0.416,0.27-0.847,0.525-1.186c0.537-0.714,1.1-1.333,1.382-2.273
	C4.329,4.542,5.049,3.78,6.176,3.719c4.544-0.244,9.088-0.51,13.628-0.82c1.853-0.126,3.727-0.177,5.498-0.876
	c0.809-0.319,1.62-0.599,2.165-1.344c0.529-0.723,1.227-0.802,2.052-0.545c1.825,0.568,3.696,1.002,5.488,1.656
	c2.829,1.031,5.761,1.33,8.72,1.378C49.564,3.26,55.402,3.238,61.239,3.29c2.41,0.021,4.82,0.152,7.23,0.156
	c2.048,0.003,4.1-0.21,6.144-0.139c4.032,0.139,7.981-0.296,11.885-1.285c0.506-0.128,1.1-0.107,1.612,0.016
	c1.681,0.404,3.369,0.808,5.004,1.36c1.744,0.588,3.444,1.045,5.328,0.734c1.965-0.324,3.928-0.402,5.773-1.426
	c0.849-0.472,2.124-0.224,3.206-0.222c3.005,0.006,6.01,0.063,9.016,0.083c2.871,0.019,5.742,0.012,8.613,0.024
	c0.912,0.004,1.824,0.026,2.736,0.048c3.735,0.091,7.471,0.152,11.204,0.3c0.895,0.035,1.774,0.39,2.669,0.548
	c3.271,0.578,6.544,1.146,9.82,1.691c0.65,0.108,1.193,0.276,1.64,0.829c0.298,0.368,0.768,0.681,1.222,0.825
	c2.251,0.713,4.498,1.471,6.796,1.988c1.255,0.283,2.577,0.096,3.907-0.161c1.481-0.287,3.094-0.224,4.6,0.01
	c3.461,0.537,6.875,1.397,10.343,1.867c1.564,0.212,3.092,0.53,4.599,0.912c2.153,0.547,4.254,1.3,6.372,1.979
	C191.115,13.477,191.233,13.645,191.556,13.913z"/>
<path fill="#512F2E" d="M515.025,37.131c0.783,0,1.234-0.001,1.684,0c15.364,0.033,30.727,0.06,46.091,0.107
	c1.597,0.005,3.225,0.06,4.486,1.257c0.914,0.867,1.83,1.746,2.63,2.715c0.75,0.909,0.455,1.439-0.514,2.168
	c-1.13,0.85-2.427,0.666-3.656,0.891c-0.71,0.13-1.452,0.116-2.18,0.119c-14.36,0.064-28.72,0.122-43.08,0.18
	c-0.319,0.001-0.648,0.043-0.954-0.02c-0.241-0.049-0.559-0.172-0.664-0.361C517.614,41.932,516.393,39.657,515.025,37.131z"/>
<path fill="#512F2E" d="M495.93,37.058c3.814,0,7.359,0,10.904,0c0.531,0,0.936,0.13,1.196,0.688
	c0.999,2.141,2.046,4.259,3.068,6.389c0.033,0.069-0.007,0.173-0.018,0.347c-3.56,0-7.128,0-10.81,0
	C498.875,42.098,497.44,39.642,495.93,37.058z"/>
</svg>
