<?xml version="1.0" encoding="utf-8"?>
<!-- Generator: Adobe Illustrator 17.0.0, SVG Export Plug-In . SVG Version: 6.00 Build 0)  -->
<!DOCTYPE svg PUBLIC "-//W3C//DTD SVG 1.1//EN" "http://www.w3.org/Graphics/SVG/1.1/DTD/svg11.dtd">
<svg version="1.1" id="Layer_1" xmlns="http://www.w3.org/2000/svg" xmlns:xlink="http://www.w3.org/1999/xlink" x="0px" y="0px"
	 width="568.244px" height="48.09px" viewBox="0 0 568.244 48.09" enable-background="new 0 0 568.244 48.09" xml:space="preserve">
<path fill="#512F2E" d="M2.696,39.853c0.243-0.02,0.502-0.042,0.759-0.064c0.018-0.111,0.063-0.208,0.042-0.287
	c-0.744-2.814-1.473-5.632-2.259-8.434c-0.18-0.643-0.535-1.242-0.845-1.843C-0.168,28.138-0.487,27.13,0.23,25.9
	c0.46-0.789,0.544-1.815,0.717-2.749c0.165-0.893,0.267-1.802,0.324-2.708c0.056-0.888,0.215-1.707,1.05-2.356
	c-0.618-1.5-1.134-3.015-1.858-4.422c-0.51-0.99-0.281-1.764,0.141-2.65C1.396,9.353,2.122,7.658,2.96,5.787
	c0.651-0.124,1.139-0.67,1.51-1.543C4.806,3.454,5.66,3.05,6.575,2.91C8.405,2.628,10.23,2.312,12.055,2
	c0.172-0.029,0.367-0.091,0.493-0.202c0.989-0.87,2.221-1.061,3.444-1.114c2.912-0.125,5.833-0.296,8.741-0.187
	c3.495,0.131,6.977,0.574,10.47,0.805c3.495,0.231,6.997,0.351,10.494,0.556c0.947,0.056,1.911,0.156,2.823,0.399
	c0.684,0.183,1.33,0.225,1.999,0.1c1.387-0.259,2.773-0.524,4.153-0.82c0.708-0.152,1.402-0.324,1.784-1.091
	c0.224-0.45,0.692-0.545,1.187-0.356c0.721,0.274,1.473,0.482,2.166,0.813c1.768,0.845,3.499,1.768,5.271,2.603
	c0.516,0.243,1.126,0.425,1.687,0.412c3.574-0.087,7.068,0.622,10.588,1.042c0.945,0.113,1.795,0.03,2.673-0.227
	c0.774-0.226,1.539-0.584,2.363-0.114c0.17,0.097,0.439,0.049,0.658,0.029c3.53-0.325,7.057-0.671,10.588-0.979
	c2.128-0.186,4.262-0.307,6.392-0.476c0.451-0.036,0.915-0.094,1.342-0.237c1.562-0.525,3.158-0.384,4.743-0.254
	c1.449,0.119,2.893,0.316,4.331,0.529c0.669,0.099,1.37,0.215,1.968,0.505c0.894,0.434,1.805,0.587,2.772,0.577
	c2.234-0.025,4.469-0.072,6.703-0.051c0.523,0.005,1.146,0.106,1.542,0.404c0.617,0.464,1.247,0.483,1.93,0.463
	c4.326-0.122,8.651-0.254,12.977-0.359c0.909-0.022,1.823,0.035,2.731,0.097c0.758,0.052,1.438-0.107,2.068-0.532
	c1.056-0.712,2.229-0.925,3.497-0.963c2.225-0.066,4.445-0.291,6.669-0.379c0.56-0.022,1.273,0.054,1.67,0.382
	c1.262,1.043,2.716,1.155,4.232,1.215c4.186,0.167,8.382,0.227,12.552,0.587c3.699,0.319,7.368-0.042,11.049-0.071
	c3.05-0.024,6.099-0.201,9.147-0.347c2.863-0.137,5.722-0.341,8.584-0.483c3.692-0.184,7.37-0.045,11.043,0.416
	c1.116,0.14,2.266,0.016,3.401-0.004c0.362-0.006,0.723-0.077,1.086-0.099c1.336-0.084,2.465-0.059,3.302,1.427
	c0.988,1.752,2.89,2.294,4.829,2.286c2.459-0.011,4.926-0.077,7.374-0.296c1.1-0.098,2.209-0.52,3.228-0.984
	c1.331-0.607,2.719-0.882,4.113-0.717c1.061,0.125,1.981-0.025,2.902-0.455c0.537-0.25,1.08-0.494,1.589-0.795
	c1.543-0.912,3.178-1.008,4.888-0.643c2.047,0.436,4.084,0.975,6.154,1.237c2.522,0.32,5.074,0.412,7.615,0.577
	c2.541,0.165,5.082,0.382,7.625,0.416c1.905,0.025,3.827-0.101,5.718-0.342c2.794-0.357,5.566-0.88,8.35-1.323
	c0.538-0.086,1.082-0.151,1.626-0.184c0.82-0.049,1.467-0.216,2.146-0.875c0.816-0.793,1.967-1.154,3.267-0.921
	c2.281,0.41,4.591,0.659,6.89,0.963c1.06,0.14,1.999,0.55,2.9,1.121c2.692,1.708,5.394,3.402,8.122,5.051
	c0.564,0.341,1.244,0.552,1.898,0.67c3.896,0.701,7.802,1.343,11.698,2.042c0.666,0.119,1.302,0.411,1.947,0.635
	c2.599,0.904,5.279,1.353,8.022,1.526c1.905,0.12,3.804,0.345,5.703,0.542c0.309,0.032,0.623,0.124,0.908,0.25
	c2.293,1.011,4.58,2.034,6.864,3.062c0.15,0.067,0.266,0.21,0.548,0.441c-2.462,0.388-4.734,0.814-7.025,1.091
	c-3.656,0.443-7.316,0.92-10.988,1.131c-3.042,0.175-6.105-0.036-9.158-0.028c-1.395,0.004-2.788,0.138-4.184,0.181
	c-0.948,0.029-1.899-0.018-2.848,0.005c-1.04,0.026-2.081,0.068-3.116,0.155c-0.398,0.034-0.816,0.175-0.842,0.888
	c4.563,0.841,9.084,2.042,13.812,1.788c1.188,2.298,3.234,3.26,5.48,3.829c2.164,0.549,3.963,1.804,5.919,2.762
	c1.549,0.759,3.155,1.424,4.789,1.974c0.685,0.231,1.507,0.087,2.265,0.061c1.081-0.037,2.16-0.161,3.241-0.178
	c2.818-0.043,5.615,0.059,8.415-0.65c2.187-0.554,4.501-0.598,6.753-0.905c2.074-0.283,4.141-0.614,6.209-0.929
	c0.178-0.027,0.397-0.048,0.516-0.159c0.998-0.933,2.221-0.686,3.37-0.598c4.352,0.335,8.697,0.757,13.049,1.096
	c3.131,0.244,6.267,0.428,9.402,0.601c3.727,0.206,7.456,0.39,11.186,0.547c2.868,0.121,5.738,0.166,8.606,0.282
	c2.636,0.107,5.253,0.26,7.843,0.94c3.077,0.807,6.229,1.327,9.335,2.028c1.319,0.298,2.669,0.528,3.816,1.382
	c0.313,0.233,0.867,0.192,1.311,0.193c15.373,0.041,30.747,0.073,46.12,0.105c2.508,0.005,5.017,0.001,7.658,0.001
	c1.25,2.435,2.512,4.891,3.853,7.504c-0.483,0.055-0.815,0.125-1.148,0.127c-4.196,0.032-8.393,0.072-12.589,0.077
	c-16.834,0.02-33.669,0.02-50.503,0.044c-26.408,0.038-52.817,0.101-79.225,0.132c-34.212,0.04-68.424,0.06-102.635,0.087
	c-1.367,0.001-2.735-0.028-4.102-0.024c-0.852,0.003-1.716-0.139-2.505,0.415c-0.264,0.186-0.705,0.145-1.067,0.162
	c-2.092,0.101-4.187,0.15-6.276,0.292c-1.95,0.133-3.944,0.155-5.827,0.607c-1.79,0.43-3.575,0.526-5.374,0.722
	c-0.978,0.106-1.915,0.56-2.878,0.831c-0.382,0.107-0.844,0.306-1.165,0.186c-1.793-0.675-3.699-0.382-5.518-0.729
	c-3.362-0.641-6.737-0.302-10.078-0.024c-2.679,0.223-5.103-0.356-7.347-1.58c-1.762-0.962-3.541-1.01-5.411-0.932
	c-4.288,0.177-8.513,0.8-12.692,1.759c-1.243,0.285-2.441,0.45-3.734,0.011c-0.919-0.312-1.975-0.246-2.973-0.298
	c-2.182-0.114-4.365-0.252-6.549-0.278c-5.427-0.066-10.855-0.102-16.282-0.101c-5.564,0-11.129,0.046-16.693,0.094
	c-3.461,0.03-6.922,0.102-10.383,0.152c-2.866,0.042-5.733,0.055-8.599,0.127c-1.728,0.043-3.457,0.283-5.18,0.234
	c-1.756-0.05-3.503-0.377-5.259-0.525c-1.813-0.153-3.633-0.226-5.449-0.355c-0.539-0.038-1.022,0.05-1.327,0.515
	c-0.702,1.072-1.788,1.13-2.892,1.141c-3.326,0.035-6.638-0.17-9.954-0.434c-2.404-0.192-4.831-0.095-7.248-0.139
	c-0.848-0.015-1.653-0.089-2.509-0.356c-1.234-0.386-2.603-0.38-3.92-0.45c-3.954-0.211-7.909-0.41-11.866-0.552
	c-3.047-0.109-6.098-0.164-9.147-0.168c-1.498-0.002-3.001,0.128-4.494,0.28c-0.619,0.063-1.266,0.244-1.813,0.536
	c-1.454,0.778-2.997,0.861-4.584,0.797c-4.822-0.194-9.647-0.345-14.467-0.58c-2.81-0.137-5.614-0.402-8.421-0.61
	c-0.268-0.02-0.613-0.157-0.79-0.04c-1.041,0.688-2.018,0.203-3.015-0.075c-0.57-0.159-1.136-0.35-1.716-0.449
	c-1.203-0.205-2.02-0.823-2.639-1.902C1.978,41.622,1.909,41.662,2.696,39.853z"/>
<path fill="#512F2E" d="M513.207,37.124c0.48-0.021,0.915-0.058,1.351-0.057c13.177,0.03,26.355,0.06,39.532,0.107
	c0.534,0.002,1.099,0.077,1.596,0.263c3.922,1.47,7.831,2.973,11.741,4.474c0.284,0.109,0.546,0.275,0.817,0.414
	c-0.422,0.821-1.625,1.617-2.632,1.695c-1.677,0.131-3.357,0.284-5.037,0.294c-13.997,0.08-27.995,0.13-41.993,0.187
	c-1.552,0.006-1.566,0.008-2.301-1.334c-1.006-1.837-1.99-3.686-2.976-5.533C513.246,37.524,513.253,37.379,513.207,37.124z"/>
<path fill="#512F2E" d="M509.138,44.447c-3.64,0-7.177,0-10.871,0c-1.393-2.374-2.833-4.827-4.362-7.434
	c0.393-0.056,0.632-0.12,0.869-0.118c3.274,0.025,6.549,0.072,9.823,0.08c0.775,0.002,1.225,0.273,1.557,1.007
	c0.86,1.904,1.816,3.765,2.723,5.649C508.988,43.86,509.036,44.121,509.138,44.447z"/>
</svg>
